<svg width="720" height="245" viewBox="0 0 720 245" fill="none" xmlns="http://www.w3.org/2000/svg">
<path d="M211.3 55.8C213.4 55.9 216.15 56 219.55 56.1C222.95 56.2 226.3 56.25 229.6 56.25C234.3 56.25 238.8 56.2 243.1 56.1C247.4 56 250.45 55.95 252.25 55.95C264.35 55.95 273.4 58.45 279.4 63.45C285.4 68.45 288.4 74.65 288.4 82.05C288.4 85.05 287.8 88.25 286.6 91.65C285.4 95.05 283.3 98.25 280.3 101.25C277.4 104.25 273.4 106.75 268.3 108.75C263.2 110.65 256.75 111.6 248.95 111.6H234.55V108.6H247.45C254.55 108.6 259.95 107.5 263.65 105.3C267.45 103 270 100 271.3 96.3C272.7 92.5 273.4 88.3 273.4 83.7C273.4 75.8 271.5 69.7 267.7 65.4C264 61 257.6 58.8 248.5 58.8C243.9 58.8 240.9 59.65 239.5 61.35C238.1 63.05 237.4 66.5 237.4 71.7V146.1C237.4 149.7 237.7 152.4 238.3 154.2C238.9 156 240.05 157.2 241.75 157.8C243.55 158.4 246.15 158.8 249.55 159V162C247.25 161.8 244.35 161.7 240.85 161.7C237.45 161.6 234 161.55 230.5 161.55C226.6 161.55 222.95 161.6 219.55 161.7C216.15 161.7 213.4 161.8 211.3 162V159C214.7 158.8 217.25 158.4 218.95 157.8C220.75 157.2 221.95 156 222.55 154.2C223.15 152.4 223.45 149.7 223.45 146.1V71.7C223.45 68 223.15 65.3 222.55 63.6C221.95 61.8 220.75 60.6 218.95 60C217.25 59.3 214.7 58.9 211.3 58.8V55.8ZM235.15 109.05C240.55 109.25 244.8 109.5 247.9 109.8C251 110 253.5 110.2 255.4 110.4C257.4 110.6 259.3 110.85 261.1 111.15C267.8 112.25 272.6 114.3 275.5 117.3C278.5 120.2 280.7 124.75 282.1 130.95L285.85 146.25C286.85 150.65 287.85 153.85 288.85 155.85C289.95 157.75 291.6 158.65 293.8 158.55C295.5 158.45 296.9 157.9 298 156.9C299.2 155.9 300.45 154.55 301.75 152.85L304 154.5C301.9 157.6 299.7 160 297.4 161.7C295.2 163.3 292.05 164.1 287.95 164.1C284.25 164.1 281 163 278.2 160.8C275.4 158.6 273.3 154.3 271.9 147.9L268.6 132.9C267.7 128.6 266.65 124.9 265.45 121.8C264.35 118.6 262.75 116.1 260.65 114.3C258.65 112.5 255.65 111.6 251.65 111.6H235.45L235.15 109.05ZM388.509 55.05L425.109 149.4C426.609 153.2 428.309 155.75 430.209 157.05C432.109 158.25 433.859 158.9 435.459 159V162C433.459 161.8 431.009 161.7 428.109 161.7C425.209 161.6 422.309 161.55 419.409 161.55C415.509 161.55 411.859 161.6 408.459 161.7C405.059 161.7 402.309 161.8 400.209 162V159C405.309 158.8 408.559 157.95 409.959 156.45C411.359 154.85 411.059 151.5 409.059 146.4L381.159 71.85L383.559 69.9L357.459 137.7C355.359 143.1 354.359 147.35 354.459 150.45C354.559 153.45 355.709 155.6 357.909 156.9C360.109 158.2 363.309 158.9 367.509 159V162C364.709 161.8 361.759 161.7 358.659 161.7C355.659 161.6 352.859 161.55 350.259 161.55C347.759 161.55 345.609 161.6 343.809 161.7C342.109 161.7 340.509 161.8 339.009 162V159C341.009 158.5 343.059 157.35 345.159 155.55C347.259 153.65 349.159 150.45 350.859 145.95L386.109 55.05C386.509 55.05 386.909 55.05 387.309 55.05C387.709 55.05 388.109 55.05 388.509 55.05ZM406.809 118.8V121.8H362.109L363.609 118.8H406.809ZM462.741 44.4V148.05C462.741 152.25 463.591 155.1 465.291 156.6C467.091 158.1 470.041 158.85 474.141 158.85V162C472.441 161.9 469.841 161.8 466.341 161.7C462.941 161.5 459.491 161.4 455.991 161.4C452.591 161.4 449.141 161.5 445.641 161.7C442.141 161.8 439.541 161.9 437.841 162V158.85C441.941 158.85 444.841 158.1 446.541 156.6C448.341 155.1 449.241 152.25 449.241 148.05V62.4C449.241 57.9 448.441 54.6 446.841 52.5C445.241 50.3 442.241 49.2 437.841 49.2V46.05C441.041 46.35 444.141 46.5 447.141 46.5C450.041 46.5 452.791 46.35 455.391 46.05C458.091 45.65 460.541 45.1 462.741 44.4ZM505.661 44.4V148.05C505.661 152.25 506.511 155.1 508.211 156.6C510.011 158.1 512.961 158.85 517.061 158.85V162C515.361 161.9 512.761 161.8 509.261 161.7C505.861 161.5 502.411 161.4 498.911 161.4C495.511 161.4 492.061 161.5 488.561 161.7C485.061 161.8 482.461 161.9 480.761 162V158.85C484.861 158.85 487.761 158.1 489.461 156.6C491.261 155.1 492.161 152.25 492.161 148.05V62.4C492.161 57.9 491.361 54.6 489.761 52.5C488.161 50.3 485.161 49.2 480.761 49.2V46.05C483.961 46.35 487.061 46.5 490.061 46.5C492.961 46.5 495.711 46.35 498.311 46.05C501.011 45.65 503.461 45.1 505.661 44.4ZM559.716 82.65C568.516 82.65 575.366 85.35 580.266 90.75C585.266 96.05 587.766 104.35 587.766 115.65H534.816L534.666 112.8H573.366C573.566 107.9 573.166 103.4 572.166 99.3C571.166 95.1 569.566 91.75 567.366 89.25C565.266 86.75 562.516 85.5 559.116 85.5C554.516 85.5 550.416 87.8 546.816 92.4C543.316 97 541.216 104.3 540.516 114.3L540.966 114.9C540.766 116.4 540.616 118.05 540.516 119.85C540.416 121.65 540.366 123.45 540.366 125.25C540.366 132.05 541.466 137.9 543.666 142.8C545.866 147.7 548.716 151.45 552.216 154.05C555.816 156.55 559.516 157.8 563.316 157.8C567.816 157.8 571.966 156.7 575.766 154.5C579.566 152.3 582.766 148.4 585.366 142.8L588.366 144C587.266 147.3 585.466 150.5 582.966 153.6C580.466 156.7 577.316 159.25 573.516 161.25C569.716 163.15 565.316 164.1 560.316 164.1C553.116 164.1 546.916 162.45 541.716 159.15C536.616 155.85 532.666 151.3 529.866 145.5C527.166 139.6 525.816 132.85 525.816 125.25C525.816 116.45 527.216 108.9 530.016 102.6C532.816 96.2 536.766 91.3 541.866 87.9C546.966 84.4 552.916 82.65 559.716 82.65ZM649.545 82.65C653.345 82.65 656.495 83.15 658.995 84.15C661.595 85.15 663.745 86.55 665.445 88.35C667.345 90.35 668.695 92.85 669.495 95.85C670.295 98.85 670.695 102.9 670.695 108V148.05C670.695 152.25 671.545 155.1 673.245 156.6C675.045 158.1 677.995 158.85 682.095 158.85V162C680.395 161.9 677.795 161.8 674.295 161.7C670.795 161.5 667.395 161.4 664.095 161.4C660.795 161.4 657.545 161.5 654.345 161.7C651.245 161.8 648.895 161.9 647.295 162V158.85C650.895 158.85 653.445 158.1 654.945 156.6C656.445 155.1 657.195 152.25 657.195 148.05V104.7C657.195 101.6 656.945 98.75 656.445 96.15C655.945 93.55 654.795 91.45 652.995 89.85C651.295 88.25 648.645 87.45 645.045 87.45C638.745 87.45 633.645 90.1 629.745 95.4C625.945 100.6 624.045 107.05 624.045 114.75V148.05C624.045 152.25 624.795 155.1 626.295 156.6C627.795 158.1 630.345 158.85 633.945 158.85V162C632.345 161.9 629.945 161.8 626.745 161.7C623.645 161.5 620.445 161.4 617.145 161.4C613.845 161.4 610.445 161.5 606.945 161.7C603.445 161.8 600.845 161.9 599.145 162V158.85C603.245 158.85 606.145 158.1 607.845 156.6C609.645 155.1 610.545 152.25 610.545 148.05V101.1C610.545 96.6 609.745 93.3 608.145 91.2C606.545 89 603.545 87.9 599.145 87.9V84.75C602.345 85.05 605.445 85.2 608.445 85.2C611.345 85.2 614.095 85.05 616.695 84.75C619.395 84.35 621.845 83.8 624.045 83.1V100.8C626.645 94 630.245 89.3 634.845 86.7C639.545 84 644.445 82.65 649.545 82.65Z" fill="white"/>
<path d="M321.166 144.9C323.766 144.9 326.016 145.85 327.916 147.75C329.816 149.65 330.766 151.9 330.766 154.5C330.766 157.1 329.816 159.35 327.916 161.25C326.016 163.15 323.766 164.1 321.166 164.1C318.566 164.1 316.316 163.15 314.416 161.25C312.516 159.35 311.566 157.1 311.566 154.5C311.566 151.9 312.516 149.65 314.416 147.75C316.316 145.85 318.566 144.9 321.166 144.9Z" fill="#C09A64"/>
<path d="M221.25 206.35C222.517 206.05 223.883 205.85 225.35 205.75C226.817 205.65 228.267 205.6 229.7 205.6C231.233 205.6 232.783 205.75 234.35 206.05C235.95 206.35 237.4 206.9 238.7 207.7C240 208.5 241.05 209.6 241.85 211C242.683 212.4 243.1 214.183 243.1 216.35C243.1 218.483 242.717 220.283 241.95 221.75C241.183 223.217 240.167 224.417 238.9 225.35C237.633 226.25 236.183 226.9 234.55 227.3C232.917 227.7 231.233 227.9 229.5 227.9C229.333 227.9 229.05 227.9 228.65 227.9C228.283 227.9 227.883 227.9 227.45 227.9C227.05 227.867 226.65 227.833 226.25 227.8C225.85 227.767 225.567 227.733 225.4 227.7V241H221.25V206.35ZM229.8 209.2C228.933 209.2 228.1 209.217 227.3 209.25C226.5 209.283 225.867 209.367 225.4 209.5V224C225.567 224.067 225.833 224.117 226.2 224.15C226.567 224.15 226.95 224.167 227.35 224.2C227.75 224.2 228.133 224.2 228.5 224.2C228.867 224.2 229.133 224.2 229.3 224.2C230.433 224.2 231.55 224.1 232.65 223.9C233.783 223.667 234.8 223.267 235.7 222.7C236.6 222.133 237.317 221.333 237.85 220.3C238.417 219.267 238.7 217.95 238.7 216.35C238.7 214.983 238.433 213.85 237.9 212.95C237.4 212.017 236.717 211.283 235.85 210.75C235.017 210.183 234.067 209.783 233 209.55C231.933 209.317 230.867 209.2 229.8 209.2ZM283.38 224.95H266.58V241H262.43V206H266.58V221.25H283.38V206H287.53V241H283.38V224.95ZM307.823 223.5C307.823 217.667 309.057 213.2 311.523 210.1C313.99 206.967 317.507 205.4 322.073 205.4C324.54 205.4 326.673 205.833 328.473 206.7C330.273 207.567 331.757 208.8 332.923 210.4C334.123 211.967 335.007 213.867 335.573 216.1C336.14 218.3 336.423 220.767 336.423 223.5C336.423 229.333 335.173 233.817 332.673 236.95C330.207 240.05 326.673 241.6 322.073 241.6C319.64 241.6 317.523 241.167 315.723 240.3C313.957 239.433 312.473 238.217 311.273 236.65C310.107 235.05 309.24 233.15 308.673 230.95C308.107 228.717 307.823 226.233 307.823 223.5ZM312.223 223.5C312.223 225.433 312.407 227.267 312.773 229C313.173 230.733 313.773 232.267 314.573 233.6C315.373 234.9 316.39 235.95 317.623 236.75C318.89 237.517 320.373 237.9 322.073 237.9C325.173 237.9 327.607 236.733 329.373 234.4C331.14 232.033 332.023 228.4 332.023 223.5C332.023 221.6 331.823 219.783 331.423 218.05C331.057 216.283 330.457 214.75 329.623 213.45C328.823 212.117 327.79 211.067 326.523 210.3C325.29 209.5 323.807 209.1 322.073 209.1C319.007 209.1 316.59 210.283 314.823 212.65C313.09 214.983 312.223 218.6 312.223 223.5ZM376.911 209.7H366.011V241H361.861V209.7H350.961V206H376.911V209.7ZM391.452 223.5C391.452 217.667 392.686 213.2 395.152 210.1C397.619 206.967 401.136 205.4 405.702 205.4C408.169 205.4 410.302 205.833 412.102 206.7C413.902 207.567 415.386 208.8 416.552 210.4C417.752 211.967 418.636 213.867 419.202 216.1C419.769 218.3 420.052 220.767 420.052 223.5C420.052 229.333 418.802 233.817 416.302 236.95C413.836 240.05 410.302 241.6 405.702 241.6C403.269 241.6 401.152 241.167 399.352 240.3C397.586 239.433 396.102 238.217 394.902 236.65C393.736 235.05 392.869 233.15 392.302 230.95C391.736 228.717 391.452 226.233 391.452 223.5ZM395.852 223.5C395.852 225.433 396.036 227.267 396.402 229C396.802 230.733 397.402 232.267 398.202 233.6C399.002 234.9 400.019 235.95 401.252 236.75C402.519 237.517 404.002 237.9 405.702 237.9C408.802 237.9 411.236 236.733 413.002 234.4C414.769 232.033 415.652 228.4 415.652 223.5C415.652 221.6 415.452 219.783 415.052 218.05C414.686 216.283 414.086 214.75 413.252 213.45C412.452 212.117 411.419 211.067 410.152 210.3C408.919 209.5 407.436 209.1 405.702 209.1C402.636 209.1 400.219 210.283 398.452 212.65C396.719 214.983 395.852 218.6 395.852 223.5ZM452.132 223.55H463.882V238.95C463.349 239.35 462.699 239.717 461.932 240.05C461.199 240.383 460.399 240.667 459.532 240.9C458.699 241.133 457.815 241.3 456.882 241.4C455.982 241.533 455.099 241.6 454.232 241.6C451.999 241.6 449.949 241.25 448.082 240.55C446.215 239.817 444.599 238.717 443.232 237.25C441.865 235.75 440.799 233.867 440.032 231.6C439.265 229.3 438.882 226.6 438.882 223.5C438.882 220.267 439.349 217.5 440.282 215.2C441.215 212.9 442.432 211.033 443.932 209.6C445.432 208.133 447.115 207.067 448.982 206.4C450.849 205.733 452.715 205.4 454.582 205.4C456.582 205.4 458.232 205.517 459.532 205.75C460.832 205.95 461.932 206.233 462.832 206.6L461.782 210.25C460.182 209.483 457.899 209.1 454.932 209.1C453.532 209.1 452.132 209.35 450.732 209.85C449.365 210.317 448.132 211.117 447.032 212.25C445.932 213.383 445.032 214.867 444.332 216.7C443.632 218.533 443.282 220.8 443.282 223.5C443.282 225.967 443.565 228.1 444.132 229.9C444.699 231.7 445.482 233.2 446.482 234.4C447.515 235.567 448.749 236.45 450.182 237.05C451.615 237.617 453.182 237.9 454.882 237.9C457.015 237.9 458.832 237.483 460.332 236.65V226.9L452.132 225.9V223.55ZM484.197 206.35C485.464 206.117 486.914 205.933 488.547 205.8C490.214 205.667 491.731 205.6 493.097 205.6C494.631 205.6 496.081 205.767 497.447 206.1C498.847 206.433 500.064 206.983 501.097 207.75C502.164 208.517 503.014 209.517 503.647 210.75C504.281 211.983 504.597 213.483 504.597 215.25C504.597 217.983 503.847 220.2 502.347 221.9C500.847 223.6 498.947 224.733 496.647 225.3L499.047 227.15L507.747 241H502.897L493.247 225.9L488.347 225.15V241H484.197V206.35ZM493.197 209.2C492.764 209.2 492.314 209.2 491.847 209.2C491.381 209.2 490.931 209.217 490.497 209.25C490.064 209.283 489.647 209.317 489.247 209.35C488.881 209.383 488.581 209.433 488.347 209.5V222.4H492.247C494.547 222.4 496.447 221.833 497.947 220.7C499.447 219.567 500.197 217.8 500.197 215.4C500.197 213.6 499.581 212.117 498.347 210.95C497.114 209.783 495.397 209.2 493.197 209.2ZM542.515 231.3H529.615L526.115 241H522.015L535.265 205.45H537.165L550.465 241H546.115L542.515 231.3ZM530.965 227.7H541.265L537.365 217.05L536.115 211.75H536.065L534.815 217.15L530.965 227.7ZM568.363 206.35C569.63 206.05 570.997 205.85 572.463 205.75C573.93 205.65 575.38 205.6 576.813 205.6C578.347 205.6 579.897 205.75 581.463 206.05C583.063 206.35 584.513 206.9 585.813 207.7C587.113 208.5 588.163 209.6 588.963 211C589.797 212.4 590.213 214.183 590.213 216.35C590.213 218.483 589.83 220.283 589.063 221.75C588.297 223.217 587.28 224.417 586.013 225.35C584.747 226.25 583.297 226.9 581.663 227.3C580.03 227.7 578.347 227.9 576.613 227.9C576.447 227.9 576.163 227.9 575.763 227.9C575.397 227.9 574.997 227.9 574.563 227.9C574.163 227.867 573.763 227.833 573.363 227.8C572.963 227.767 572.68 227.733 572.513 227.7V241H568.363V206.35ZM576.913 209.2C576.047 209.2 575.213 209.217 574.413 209.25C573.613 209.283 572.98 209.367 572.513 209.5V224C572.68 224.067 572.947 224.117 573.313 224.15C573.68 224.15 574.063 224.167 574.463 224.2C574.863 224.2 575.247 224.2 575.613 224.2C575.98 224.2 576.247 224.2 576.413 224.2C577.547 224.2 578.663 224.1 579.763 223.9C580.897 223.667 581.913 223.267 582.813 222.7C583.713 222.133 584.43 221.333 584.963 220.3C585.53 219.267 585.813 217.95 585.813 216.35C585.813 214.983 585.547 213.85 585.013 212.95C584.513 212.017 583.83 211.283 582.963 210.75C582.13 210.183 581.18 209.783 580.113 209.55C579.047 209.317 577.98 209.2 576.913 209.2ZM630.493 224.95H613.693V241H609.543V206H613.693V221.25H630.493V206H634.643V241H630.493V224.95ZM664.087 227.1L652.537 206H657.387L665.587 221.3L666.437 224.35H666.487L667.387 221.2L675.237 206H679.687L668.237 227.05V241H664.087V227.1Z" fill="white"/>
<path d="M2.2125 125.319C3.4338 125.319 4.425 124.328 4.425 123.107V68.425H59.1069C60.3282 68.425 61.3194 67.4338 61.3194 66.2125C61.3194 64.9912 60.3282 64 59.1069 64H2.2125C0.9912 64 0 64.9912 0 66.2125V123.107C0 124.33 0.9912 125.319 2.2125 125.319Z" fill="#C09A64"/>
<path d="M2.2125 241H59.1069C60.3282 241 61.3194 240.009 61.3194 238.788C61.3194 237.566 60.3282 236.575 59.1069 236.575H4.425V181.893C4.425 180.672 3.4338 179.681 2.2125 179.681C0.9912 179.681 0 180.672 0 181.893V238.788C0 240.009 0.9912 241 2.2125 241Z" fill="#C09A64"/>
<path d="M174.788 179.681C173.566 179.681 172.575 180.672 172.575 181.893V236.575H117.893C116.672 236.575 115.681 237.566 115.681 238.788C115.681 240.009 116.672 241 117.893 241H174.788C176.009 241 177 240.009 177 238.788V181.893C177 180.67 176.009 179.681 174.788 179.681Z" fill="#C09A64"/>
<path d="M174.788 64H117.893C116.672 64 115.681 64.9912 115.681 66.2125C115.681 67.4338 116.672 68.425 117.893 68.425H172.575V123.107C172.575 124.328 173.566 125.319 174.788 125.319C176.009 125.319 177 124.328 177 123.107V66.2125C177 64.9912 176.009 64 174.788 64Z" fill="#C09A64"/>
<path d="M88.5 121.397C87.2787 121.397 86.2875 122.388 86.2875 123.609V150.287H59.6092C58.3879 150.287 57.3967 151.279 57.3967 152.5C57.3967 153.721 58.3879 154.712 59.6092 154.712H86.2875V181.391C86.2875 182.612 87.2787 183.603 88.5 183.603C89.7213 183.603 90.7125 182.612 90.7125 181.391V154.712H117.391C118.612 154.712 119.603 153.721 119.603 152.5C119.603 151.279 118.612 150.287 117.391 150.287H90.7125V123.609C90.7125 122.388 89.7213 121.397 88.5 121.397Z" fill="#C09A64"/>
</svg>
